<svg id="cms-logo" width="50px" data-name="Layer 1" xmlns="http://www.w3.org/2000/svg" viewBox="0 0 221.89 249.95"><path d="M343.93,264.22a94.23,94.23,0,0,1,20.1,2c2.32.45,4.6,1,6.91,1.46a2.35,2.35,0,0,0,1.64-.35,97.11,97.11,0,0,1,15.5-8.8,2.45,2.45,0,0,0,1.1-1.23c1.13-3.24,2.17-6.51,3.3-9.75a1.31,1.31,0,0,0-.44-1.63,10.63,10.63,0,0,1,9.23-18.26,1.22,1.22,0,0,0,1.46-.63A37,37,0,0,1,413,216.58c7.47-4.77,15.52-4.39,22.66,1,5.09,3.87,8.77,8.93,11.89,14.41a117.23,117.23,0,0,1,10.4,25.42,2.89,2.89,0,0,0,1.75,2,79.94,79.94,0,0,1,14.23,8.36,2.29,2.29,0,0,0,2.09.37c10.34-2.46,20.77-4.2,31.44-3.7,6.68.32,13.2,1.43,18.89,5.33s8.16,9.41,8,16.22c-.18,6.53-2.58,12.37-5.65,18-4.87,8.94-11.3,16.71-18.29,24a2.91,2.91,0,0,0-.9,2.54,78.33,78.33,0,0,1,.05,15.08,2.67,2.67,0,0,0,.61,1.77c2.64,3.05,5.35,6,8,9.05a1.15,1.15,0,0,0,1.43.41A10.63,10.63,0,0,1,530.94,374a1.28,1.28,0,0,0-.18,1.66A40.72,40.72,0,0,1,534.49,388c1.17,9.43-3.54,17.34-12.38,20.82-6.57,2.58-13.42,3.08-20.37,2.89a116.71,116.71,0,0,1-24.39-3.53,4.76,4.76,0,0,0-4.46.83,76.54,76.54,0,0,1-13.43,7.82,2.56,2.56,0,0,0-1.22,1.41,135.13,135.13,0,0,1-8.5,22.08c-3.39,6.7-7.33,13-13.23,17.86a20.51,20.51,0,0,1-11.82,5,18.83,18.83,0,0,1-12-3.47c-5.2-3.48-8.93-8.29-12.11-13.55a110.07,110.07,0,0,1-11.13-26.26,4.13,4.13,0,0,0-2.53-3,73.58,73.58,0,0,1-14.21-8.13,2.26,2.26,0,0,0-2.08-.41c-2.48.59-5,1.07-7.48,1.66a1.29,1.29,0,0,0-.81.77,10.75,10.75,0,0,1-9.05,8.56,10.49,10.49,0,0,1-11.13-6.18,1.85,1.85,0,0,0-2-1.23,40.31,40.31,0,0,1-15.74-3.24c-5.73-2.6-9.79-6.73-11.2-13a25.8,25.8,0,0,1,1-13.57c2.46-7.81,6.7-14.65,11.66-21,3.23-4.16,6.82-8,10.19-12.08a2.52,2.52,0,0,0,.52-1.69,65.08,65.08,0,0,1-.1-16.38c.4-2.83-.64-4.55-2.4-6.46-6.63-7.18-12.57-14.9-16.85-23.74-2.48-5.11-4.26-10.41-4.15-16.2a17.88,17.88,0,0,1,9.36-15.94c4.89-2.9,10.33-3.92,15.91-4.36C340.24,264.1,342.09,264.22,343.93,264.22Zm92.48,118.14-.71.34c-3.42,1.81-6.77,3.77-10.28,5.38-6.91,3.19-13.92,6.18-20.88,9.29a2.3,2.3,0,0,0-1.1,1.12c-2,5.2-4,10.43-6,15.62-.74,1.88-1,4.11-3.2,5.08A113.67,113.67,0,0,0,403.7,442a43.44,43.44,0,0,0,10.13,12.62c6,4.89,12.38,5.1,18.7.57a33.13,33.13,0,0,0,7.62-8.05,87,87,0,0,0,10.28-20.59c.85-2.34,1.63-4.72,2.5-7.24-2.21-.17-3.05-1.56-3.69-3.28-1.71-4.6-3.48-9.17-5.26-13.74-1.15-2.93-2.4-5.83-3.52-8.77C439.08,389.86,437.79,386.18,436.41,382.36Zm-30.26,9.05c.58-.18.89-.25,1.18-.37q13.47-5.81,26.43-12.69c.87-.46.69-1,.43-1.63q-2-5.07-3.92-10.16a3.45,3.45,0,0,1,2.07-4.77,32.16,32.16,0,0,0,3-1.44A25.5,25.5,0,0,0,414.61,314a25.24,25.24,0,0,0-16.88,27.7c1.42,9.57,6.89,16.29,15.83,20.11,2.11.9,2.95,2.59,2.15,4.74-2,5.22-4,10.42-6,15.63ZM479.6,272.22a87.31,87.31,0,0,1,28.91,50.68c.23-.17.34-.22.42-.3a111.25,111.25,0,0,0,14.71-19.44c2.94-5.12,5.39-10.44,5.87-16.42.4-5-1.09-9.31-5.19-12.48s-8.66-4.22-13.5-4.72C500.37,268.46,490.1,269.89,479.6,272.22ZM337.43,321.31l.36-.16A87.13,87.13,0,0,1,367,271.7c-.82-.17-1.44-.31-2.07-.43-8-1.61-16.14-2.77-24.37-2.37-5.14.24-10.19,1-14.83,3.39-4.11,2.16-6.85,5.37-7.58,10.11a23,23,0,0,0,1.33,11.05,62.51,62.51,0,0,0,9.51,17.2C331.69,314.28,334.6,317.76,337.43,321.31Zm142.28,82.48c.59.17,1,.3,1.34.38a114.84,114.84,0,0,0,22.31,2.8c5.86.07,11.68-.39,17.16-2.72,4.05-1.72,7.31-4.34,8.63-8.73,2-6.56-.33-12.47-2.91-18.35-5,1.16-9.14,0-12-4.2-3-4.39-2.43-8.8.61-13.05-1-1.2-2-2.4-3.05-3.56s-2.06-2.29-3.2-3.56A87.72,87.72,0,0,1,479.71,403.79ZM406.39,230.13c3.4,3.5,4.57,7.52,2.74,11.94-2.17,5.24-6.45,7.2-12,6.61-.83,2.39-1.63,4.74-2.52,7.32a87.9,87.9,0,0,1,57.93.41,2.28,2.28,0,0,0,0-.47,109.07,109.07,0,0,0-9.61-22.38c-3-5-6.36-9.69-11.33-12.95s-9.89-3.55-15-.6C412.28,222.47,409.23,226.12,406.39,230.13ZM337.68,354.48c-.43.45-.72.72-1,1a115.46,115.46,0,0,0-11.39,14.77c-3.42,5.39-6.41,11-7.44,17.37-1.2,7.46,1.11,13.11,8.15,16.52,4.58,2.22,9.53,2.87,14.55,3.07a1.24,1.24,0,0,0,.86-.67c.33-.72.44-1.54.79-2.25a10.68,10.68,0,0,1,19.47.33c.12.26.51.6.72.57,1.43-.21,2.85-.52,4.52-.84A87.82,87.82,0,0,1,337.68,354.48Zm179,12.48a6.3,6.3,0,1,0,6.33-6.31A6.38,6.38,0,0,0,516.66,367ZM393,238.15a6.28,6.28,0,1,0,6.29-6.3A6.2,6.2,0,0,0,393,238.15Zm-41.11,177a6.29,6.29,0,0,0,0-12.57,6.29,6.29,0,1,0,0,12.57Z" transform="translate(-312.78 -213.25)" style="fill:#fff"/></svg>